HIERARCHY
ROOT Pelvis
{
	OFFSET 0.000000 0.000000 0.000000
	CHANNELS 6 Xposition Yposition Zposition Xrotation Yrotation Zrotation
	JOINT LeftUpLeg_virtual
	{
		OFFSET 0.000000 0.000000 0.000000
		CHANNELS 3 Xrotation Yrotation Zrotation
		JOINT LeftUpLeg
		{
			OFFSET 18.735201 -5.666702 -4.541200
			CHANNELS 3 Xrotation Yrotation Zrotation
			JOINT LeftLeg
			{
				OFFSET -0.021200 -31.938179 0.493100
				CHANNELS 3 Xrotation Yrotation Zrotation
				JOINT LeftFoot
				{
					OFFSET 0.021200 -31.938179 -4.336299
					CHANNELS 3 Xrotation Yrotation Zrotation
					JOINT LeftToeBase
					{
						OFFSET 0.943001 -26.722000 15.023500
						CHANNELS 3 Xrotation Yrotation Zrotation
						End Site
						{
							OFFSET 0 0 0
						}
					}
				}
			}
		}
	}
	JOINT RightUpLeg_virtual
	{
		OFFSET 0.000000 0.000000 0.000000
		CHANNELS 3 Xrotation Yrotation Zrotation
		JOINT RightUpLeg
		{
			OFFSET -18.735201 -5.666702 -4.541200
			CHANNELS 3 Xrotation Yrotation Zrotation
			JOINT RightLeg
			{
				OFFSET 0.018946 -31.938133 0.493100
				CHANNELS 3 Xrotation Yrotation Zrotation
				JOINT RightFoot
				{
					OFFSET -0.018946 -31.938126 -4.336299
					CHANNELS 3 Xrotation Yrotation Zrotation
					JOINT RightToeBase
					{
						OFFSET -0.943001 -26.722004 15.023500
						CHANNELS 3 Xrotation Yrotation Zrotation
						End Site
						{
							OFFSET 0 0 0
						}
					}
				}
			}
		}
	}
	JOINT Hips_virtual
	{
		OFFSET 0.000000 0.000000 0.000000
		CHANNELS 3 Xrotation Yrotation Zrotation
		JOINT Hips
		{
			OFFSET -0.000000 -0.000000 -0.000000
			CHANNELS 3 Xrotation Yrotation Zrotation
			JOINT Spine
			{
				OFFSET 0.000000 10.199997 -0.299500
				CHANNELS 3 Xrotation Yrotation Zrotation
				JOINT Spine1
				{
					OFFSET 0.000000 11.900002 -1.516600
					CHANNELS 3 Xrotation Yrotation Zrotation
					JOINT Spine2
					{
						OFFSET 0.000000 13.600006 -2.842500
						CHANNELS 3 Xrotation Yrotation Zrotation
						JOINT Neck_virtual
						{
							OFFSET 0.000000 0.000000 0.000000
							CHANNELS 3 Xrotation Yrotation Zrotation
							JOINT Neck
							{
								OFFSET 0.000000 9.624100 -2.890100
								CHANNELS 3 Xrotation Yrotation Zrotation
								JOINT Head
								{
									OFFSET 0.000000 14.068802 -1.351900
									CHANNELS 3 Xrotation Yrotation Zrotation
									End Site
									{
										OFFSET 0 0 0
									}
								}
							}
						}
						JOINT LeftShoulder_virtual
						{
							OFFSET 0.000000 0.000000 0.000000
							CHANNELS 3 Xrotation Yrotation Zrotation
							JOINT LeftShoulder
							{
								OFFSET 15.263000 10.923401 -0.547700
								CHANNELS 3 Xrotation Yrotation Zrotation
								JOINT LeftArm
								{
									OFFSET 25.438599 -2.830597 -13.032500
									CHANNELS 3 Xrotation Yrotation Zrotation
									JOINT LeftForeArm
									{
										OFFSET 29.960503 0.000000 0.000000
										CHANNELS 3 Xrotation Yrotation Zrotation
										JOINT LeftHand
										{
											OFFSET 27.849251 0.000000 0.000000
											CHANNELS 3 Xrotation Yrotation Zrotation
											End Site
											{
												OFFSET 0 0 0
											}
										}
									}
								}
							}
						}
						JOINT RightShoulder_virtual
						{
							OFFSET 0.000000 0.000000 0.000000
							CHANNELS 3 Xrotation Yrotation Zrotation
							JOINT RightShoulder
							{
								OFFSET -15.263000 10.923401 -0.547700
								CHANNELS 3 Xrotation Yrotation Zrotation
								JOINT RightArm
								{
									OFFSET -25.438599 -2.830597 -13.032500
									CHANNELS 3 Xrotation Yrotation Zrotation
									JOINT RightForeArm
									{
										OFFSET -29.960503 0.000000 0.000000
										CHANNELS 3 Xrotation Yrotation Zrotation
										JOINT RightHand
										{
											OFFSET -27.849251 0.000000 0.000000
											CHANNELS 3 Xrotation Yrotation Zrotation
											End Site
											{
												OFFSET 0 0 0
											}
										}
									}
								}
							}
						}
					}
				}
			}
		}
	}
}
MOTION
Frames: 10
Frame Time: 0.03333333
-4.217915 62.278919 15.515228 0.000000 0.000000 0.000000 5.607042 -8.697818 0.819719 -90.659287 -10.541690 9.297878 76.859798 11.078241 -5.842762 10.777360 -13.641811 -7.066106 0.000000 0.000000 0.000000 6.094706 -7.996807 1.182605 -103.241834 16.354155 -13.204406 92.673762 1.555543 2.370019 -3.834987 -1.285791 2.586494 0.000000 0.000000 0.000000 6.405605 -8.552502 1.264363 -0.756543 -0.058138 0.043412 18.049325 4.224265 1.988111 0.125681 3.683627 -0.238276 0.000000 0.000000 0.000000 -4.538940 -0.025098 1.726664 -0.979910 -1.500645 2.370368 0.000000 0.000000 0.000000 -2.528728 -0.044199 3.342014 -0.541112 5.311025 -7.984717 -8.080277 -36.893475 -84.766151 45.283440 -69.402071 50.648889 0.000000 0.000000 0.000000 -4.384936 0.611900 1.673328 4.108296 -5.555620 11.348110 -24.967178 53.317536 71.006913 48.039026 41.616647 -52.095810 0.000000 0.000000 0.000000 
-4.263619 62.268562 15.130539 0.000000 0.000000 0.000000 5.469555 -8.686035 0.822821 -90.642068 -10.583029 9.216139 76.870139 11.200557 -5.831660 11.064049 -13.588117 -6.633718 0.000000 0.000000 0.000000 5.807681 -7.980495 1.182576 -103.009648 16.314132 -13.271079 92.797115 1.620061 2.347814 -3.703793 -1.290092 2.631465 0.000000 0.000000 0.000000 6.137551 -8.749597 1.280871 -0.752262 -0.071357 0.039304 18.094383 3.984693 2.251314 0.311385 3.467681 -0.293794 0.000000 0.000000 0.000000 -4.341040 -0.174521 1.701206 -0.862165 -1.526057 2.405320 0.000000 0.000000 0.000000 -2.176485 -0.158169 3.158507 -0.557712 5.247990 -7.968131 -7.867438 -36.841467 -84.377650 43.102476 -68.340305 47.860918 0.000000 0.000000 0.000000 -4.360232 0.493553 1.702973 4.161356 -4.796872 10.662935 -24.593179 51.903099 70.506451 48.971196 40.982812 -53.346520 0.000000 0.000000 0.000000 
-4.322063 62.311409 14.704044 0.000000 0.000000 0.000000 5.171983 -8.580478 0.880619 -90.581982 -10.673117 8.974641 76.763383 11.419756 -5.926141 11.754464 -13.401692 -6.118199 0.000000 0.000000 0.000000 5.429025 -7.873955 1.245830 -102.645319 16.318333 -13.250889 92.671877 1.733963 2.239603 -3.382970 -1.096452 2.594451 0.000000 0.000000 0.000000 5.745303 -8.658710 1.316716 -0.748825 -0.061427 0.023027 18.148658 3.573875 2.559260 0.682846 3.073225 -0.368122 0.000000 0.000000 0.000000 -4.013791 -0.516027 1.661017 -0.855919 -1.571021 2.376557 0.000000 0.000000 0.000000 -1.668212 -0.444340 3.012847 -0.763360 4.981118 -7.398570 -7.472401 -36.819391 -83.080481 43.557254 -68.373896 47.361990 0.000000 0.000000 0.000000 -4.059584 0.168351 1.680065 4.035164 -3.391565 9.660646 -23.945713 50.051940 68.171025 51.035826 40.066795 -55.753263 0.000000 0.000000 0.000000 
-4.403043 62.412521 14.317799 0.000000 0.000000 0.000000 4.811004 -8.438069 0.986626 -90.409185 -10.747363 8.600320 76.463647 11.658128 -6.070260 12.736238 -13.160911 -5.682337 0.000000 0.000000 0.000000 5.011703 -7.731764 1.355256 -102.210830 16.291272 -13.306722 92.345503 1.874396 2.078122 -2.833708 -0.744429 2.521155 0.000000 0.000000 0.000000 5.290380 -8.304836 1.381613 -0.749570 -0.038442 0.007192 18.150150 3.049131 2.869622 1.224867 2.595408 -0.479042 0.000000 0.000000 0.000000 -3.484154 -0.965322 1.546891 -0.941831 -1.632651 2.262456 0.000000 0.000000 0.000000 -1.024698 -0.833534 2.864938 -1.107490 4.581788 -6.356422 -6.849524 -36.612939 -80.867275 48.539795 -70.046349 51.209753 0.000000 0.000000 0.000000 -3.457893 -0.264855 1.575291 3.746631 -1.641899 8.407446 -23.778711 47.697666 64.880165 54.880461 39.451924 -60.030635 0.000000 0.000000 0.000000 
-4.523941 62.551674 14.041878 0.000000 0.000000 0.000000 4.493623 -8.261371 1.146918 -90.152275 -10.705372 8.262854 76.018339 11.832372 -6.211444 13.826326 -12.940515 -5.486016 0.000000 0.000000 0.000000 4.643964 -7.521001 1.495188 -101.791054 16.179487 -13.499135 91.933001 1.957330 1.979275 -2.237761 -0.386249 2.368053 0.000000 0.000000 0.000000 4.865466 -7.803828 1.489372 -0.759152 -0.012398 -0.007221 17.983929 2.459144 3.087061 1.970055 2.102357 -0.644016 0.000000 0.000000 0.000000 -2.721223 -1.444296 1.359673 -1.070138 -1.684475 2.076771 0.000000 0.000000 0.000000 -0.228305 -1.250182 2.633131 -1.501031 4.072124 -5.122058 -5.791623 -36.175544 -77.713353 60.628482 -72.917802 62.202485 0.000000 0.000000 0.000000 -2.567607 -0.696848 1.404243 3.404539 0.443438 7.180383 -24.567448 44.919572 61.675106 60.519226 39.350472 -66.329224 0.000000 0.000000 0.000000 
-4.694048 62.682487 13.846115 0.000000 0.000000 0.000000 4.298300 -8.023252 1.371205 -89.882769 -10.496408 8.088876 75.437493 11.897515 -6.305670 14.726977 -12.828078 -5.627532 0.000000 0.000000 0.000000 4.421423 -7.252200 1.677863 -101.527531 16.059656 -13.724291 91.559854 1.906916 1.985526 -1.815872 -0.156989 2.095815 0.000000 0.000000 0.000000 4.595555 -7.291978 1.662803 -0.772126 -0.004460 -0.018998 17.590211 1.852514 3.133735 2.831398 1.660573 -0.855762 0.000000 0.000000 0.000000 -1.757154 -1.851686 1.126826 -1.190197 -1.702688 1.860666 0.000000 0.000000 0.000000 0.673798 -1.623390 2.293436 -1.878942 3.525847 -3.923293 -4.908500 -35.339139 -73.700876 82.813387 -75.239868 83.532100 0.000000 0.000000 0.000000 -1.430692 -1.052910 1.210621 3.087957 2.893951 6.125812 -26.771155 41.782695 58.963083 68.315019 39.734769 -74.966155 0.000000 0.000000 0.000000 
-4.880852 62.789879 13.694550 0.000000 0.000000 0.000000 4.334067 -7.798475 1.657602 -89.675623 -10.141779 8.057132 74.740684 11.855347 -6.328185 15.075179 -12.855962 -6.100729 0.000000 0.000000 0.000000 4.456844 -6.973867 1.934794 -101.517737 16.013969 -13.785765 91.208898 1.722626 2.037688 -1.704521 -0.095168 1.762016 0.000000 0.000000 0.000000 4.585291 -6.937153 1.928193 -0.786427 -0.021981 -0.026465 17.010035 1.266359 2.962690 3.666335 1.281331 -1.056138 0.000000 0.000000 0.000000 -0.654753 -2.162710 0.927509 -1.252210 -1.678496 1.679663 0.000000 0.000000 0.000000 1.596719 -1.929092 1.886749 -2.215416 2.943683 -2.822199 -5.336849 -34.048671 -68.984207 110.816404 -74.721860 111.059484 0.000000 0.000000 0.000000 -0.254809 -1.294613 1.037364 2.790365 5.649148 5.209705 -30.398737 38.420777 56.172470 78.074779 40.071825 -85.664246 0.000000 0.000000 0.000000 
-5.034670 62.848755 13.608425 0.000000 0.000000 0.000000 4.699537 -7.678231 1.978732 -89.637490 -9.670780 8.129215 74.091372 11.731401 -6.283540 14.770130 -12.954985 -6.729505 0.000000 0.000000 0.000000 4.822333 -6.834449 2.254803 -101.888391 16.045955 -13.715181 90.970750 1.454037 2.110860 -2.031896 -0.171343 1.523772 0.000000 0.000000 0.000000 4.900021 -6.804045 2.256229 -0.792130 -0.043601 -0.021735 16.341255 0.761508 2.610612 4.360905 0.981083 -1.198036 0.000000 0.000000 0.000000 0.424624 -2.391074 0.788836 -1.234944 -1.607239 1.580790 0.000000 0.000000 0.000000 2.400714 -2.170423 1.485354 -2.492350 2.351189 -1.679339 -8.059871 -32.550448 -63.613616 132.405184 -71.146570 132.668925 0.000000 0.000000 0.000000 0.809683 -1.445831 0.939578 2.533958 8.410464 4.224314 -35.660356 34.934423 52.833463 89.104749 39.817827 -97.558597 0.000000 0.000000 0.000000 
-5.151150 62.841995 13.649040 0.000000 0.000000 0.000000 5.460165 -7.703300 2.290082 -89.893062 -9.153732 8.271497 73.640730 11.618441 -6.200018 13.934782 -13.014698 -7.276814 0.000000 0.000000 0.000000 5.579108 -6.887276 2.577201 -102.800576 16.146046 -13.507216 91.001499 1.206687 2.194969 -2.568139 -0.328442 1.499156 0.000000 0.000000 0.000000 5.589963 -6.851903 2.590851 -0.792782 -0.053352 -0.004783 15.696565 0.397105 2.227127 4.881691 0.774460 -1.259233 0.000000 0.000000 0.000000 1.363324 -2.540492 0.679399 -1.169601 -1.515194 1.598384 0.000000 0.000000 0.000000 2.955578 -2.314558 1.157396 -2.696226 1.885802 -0.413428 -13.455760 -31.193809 -57.728390 145.590673 -66.028955 146.415500 0.000000 0.000000 0.000000 1.702355 -1.525866 0.907552 2.356938 10.711372 2.866686 -43.452789 31.713924 49.586559 99.408383 38.583148 -108.666548 0.000000 0.000000 0.000000 
-5.243005 62.762764 13.902344 0.000000 0.000000 0.000000 6.644255 -7.862769 2.558483 -90.578212 -8.707729 8.480727 73.547730 11.549309 -6.088054 12.733452 -12.981434 -7.590528 0.000000 0.000000 0.000000 6.770888 -7.052853 2.847515 -104.320375 16.292790 -13.077524 91.343576 1.035344 2.322147 -3.149333 -0.558478 1.664921 0.000000 0.000000 0.000000 6.702933 -7.015075 2.860275 -0.791531 -0.043018 0.008087 15.153208 0.140416 1.976914 5.208794 0.654333 -1.270025 0.000000 0.000000 0.000000 2.025160 -2.633785 0.594930 -1.101561 -1.420881 1.744821 0.000000 0.000000 0.000000 3.238930 -2.378492 0.905348 -2.828637 1.710256 0.929879 -20.969953 -30.248230 -51.746538 153.689747 -60.130841 155.541234 0.000000 0.000000 0.000000 2.324428 -1.572931 0.903481 2.281778 12.235405 0.871804 -53.661282 29.480988 47.412465 106.902597 36.914519 -117.027737 0.000000 0.000000 0.000000 
